<?xml version="1.0" encoding="utf-8"?>
<!-- Generator: Adobe Illustrator 24.1.2, SVG Export Plug-In . SVG Version: 6.00 Build 0)  -->
<!DOCTYPE svg PUBLIC "-//W3C//DTD SVG 1.1//EN" "http://www.w3.org/Graphics/SVG/1.1/DTD/svg11.dtd" [
	<!ENTITY ns_extend "http://ns.adobe.com/Extensibility/1.0/">
	<!ENTITY ns_ai "http://ns.adobe.com/AdobeIllustrator/10.0/">
	<!ENTITY ns_graphs "http://ns.adobe.com/Graphs/1.0/">
	<!ENTITY ns_vars "http://ns.adobe.com/Variables/1.0/">
	<!ENTITY ns_imrep "http://ns.adobe.com/ImageReplacement/1.0/">
	<!ENTITY ns_sfw "http://ns.adobe.com/SaveForWeb/1.0/">
	<!ENTITY ns_custom "http://ns.adobe.com/GenericCustomNamespace/1.0/">
	<!ENTITY ns_adobe_xpath "http://ns.adobe.com/XPath/1.0/">
]>
<svg version="1.1" id="Layer_1" xmlns:x="&ns_extend;" xmlns:i="&ns_ai;" xmlns:graph="&ns_graphs;"
	 xmlns="http://www.w3.org/2000/svg" xmlns:xlink="http://www.w3.org/1999/xlink" x="0px" y="0px" viewBox="0 0 768 768"
	 style="enable-background:new 0 0 768 768;" xml:space="preserve">
<style type="text/css">
	.st0{fill:#DDB087;}
	.st1{fill:#F0C191;}
	.st2{fill:#F26176;}
	.st3{fill:#E95A6A;}
	.st4{fill:#6BB3D9;}
	.st5{fill:#4FA4D1;}
</style>
<metadata>
	<sfw  xmlns="&ns_sfw;">
		<slices></slices>
		<sliceSourceBounds  bottomLeftOrigin="true" height="337.4" width="576.2" x="95.9" y="215.3"></sliceSourceBounds>
	</sfw>
</metadata>
<g>
	<path class="st0" d="M520.6,439.9L350.3,279.8c-3-2.8-6.6-4.9-10.6-6c-3.9-1.2-8.1-1.4-12.1-0.6l-54.2,10.1l-35.7-12.6l-64.5,121.8
		c0,0,52.7,67.3,71.1,83.8c18.4,16.5,118.9,57.1,151.9,65.6c32.9,8.6,35.1-21.9,35.1-21.9c27,4.6,33.1-22,33.1-22
		c40.9,3.3,33.6-24.4,33.6-24.4c14.2,3.3,21.8-0.9,25.9-6.8c2.7-4.2,3.8-9.1,3.2-14.1C526.6,447.8,524.3,443.3,520.6,439.9z"/>
	<path class="st1" d="M518.5,284.5l-20.4,5.9l-85.2-9.7c-4.7-0.5-9.4-0.3-14,0.7l-53.9,12c-10.6,2.4-19.9,8.7-26,17.8
		c-7,10.5-16.3,24.8-21.8,35.5c-0.6,1.1-0.9,2.3-0.9,3.6c0,1.3,0.2,2.5,0.7,3.7c0.5,1.1,1.3,2.2,2.3,2.9c1,0.8,2.1,1.4,3.3,1.6
		c14.4,3.3,41.7,5.7,57.7-17.3l36.2-4l125.4,104.2l59.1-35.6L597,388L518.5,284.5z"/>
	<path class="st1" d="M377.1,504.3c-3.7-2-8-2.5-12-1.4c-4,1.2-7.4,3.9-9.5,7.5l-10.4,18.8c-1,1.8-1.6,3.8-1.9,5.9
		c-0.2,2.1-0.1,4.2,0.5,6.1c0.6,2,1.5,3.9,2.8,5.5c1.3,1.6,2.9,3,4.7,4c1.8,1,3.8,1.6,5.9,1.9c2.1,0.2,4.2,0.1,6.1-0.5
		c2-0.6,3.9-1.5,5.5-2.8c1.6-1.3,3-2.9,4-4.7l10.4-18.8c1-1.8,1.6-3.8,1.9-5.9c0.2-2.1,0.1-4.2-0.5-6.2c-0.6-2-1.5-3.9-2.8-5.5
		C380.6,506.6,379,505.3,377.1,504.3z"/>
	<path class="st1" d="M350.4,480.6c-2.2-1.2-4.6-2-7.1-2.3c-2.5-0.3-5-0.1-7.4,0.6c-2.4,0.7-4.6,1.8-6.6,3.4c-2,1.6-3.6,3.5-4.8,5.7
		l-12.5,22.6c-2.4,4.4-3,9.6-1.6,14.5c1.4,4.8,4.7,8.9,9.1,11.4c4.4,2.4,9.6,3,14.5,1.6c4.8-1.4,8.9-4.7,11.4-9.1l12.4-22.6
		c2.4-4.4,3-9.6,1.6-14.5C358.1,487.1,354.8,483,350.4,480.6z"/>
	<path class="st1" d="M317.1,462.2c-4.4-2.4-9.6-3-14.5-1.6c-4.8,1.4-8.9,4.7-11.4,9.1l-12.5,22.6c-2.4,4.4-3,9.6-1.6,14.5
		c1.4,4.8,4.7,8.9,9.1,11.4c4.4,2.4,9.6,3,14.5,1.6c4.8-1.4,8.9-4.7,11.4-9.1l12.5-22.6c1.2-2.2,2-4.6,2.2-7.1
		c0.3-2.5,0.1-5-0.6-7.4c-0.7-2.4-1.9-4.6-3.4-6.6C321.3,465,319.3,463.4,317.1,462.2z"/>
	<path class="st1" d="M283.8,443.8c-4.4-2.4-9.6-3-14.5-1.6c-4.8,1.4-8.9,4.7-11.4,9.1l-12.5,22.6c-1.2,2.2-2,4.6-2.3,7.1
		c-0.3,2.5-0.1,5,0.6,7.4c0.7,2.4,1.9,4.6,3.4,6.6c1.6,2,3.5,3.6,5.7,4.8c2.2,1.2,4.6,2,7.1,2.3c2.5,0.3,5,0.1,7.4-0.6
		c2.4-0.7,4.6-1.9,6.6-3.4c2-1.6,3.6-3.5,4.8-5.7l12.5-22.6c1.2-2.2,2-4.6,2.2-7.1c0.3-2.5,0.1-5-0.6-7.4c-0.7-2.4-1.9-4.6-3.4-6.6
		C288,446.6,286,445,283.8,443.8z"/>
	<path class="st2" d="M575.5,226L507,269.4c-3.5,2.2-4.5,6.8-2.3,10.3l85.1,134.5c2.2,3.5,6.8,4.5,10.3,2.3l68.5-43.4
		c3.5-2.2,4.5-6.8,2.3-10.3l-85.1-134.5C583.6,224.9,579,223.8,575.5,226z"/>
	<path class="st3" d="M670.9,362.8L647.5,326c-0.1,0.1-0.3,0.2-0.4,0.3l1,1.6c1.1,1.7,1.4,3.7,1,5.6c-0.4,1.9-1.6,3.6-3.3,4.7
		l-68.5,43.4c-1.3,0.8-2.8,1.2-4.3,1.1c-1.5-0.1-3-0.6-4.2-1.5l20.9,33c1.1,1.7,2.7,2.9,4.7,3.3c1.9,0.4,4,0.1,5.6-1l68.5-43.4
		c1.7-1.1,2.9-2.8,3.3-4.7C672.3,366.5,671.9,364.5,670.9,362.8z"/>
	<path class="st4" d="M192.2,218.3L97.4,346.1c-2.5,3.3-1.8,8,1.5,10.5l65.1,48.3c3.3,2.5,8,1.8,10.5-1.5l94.8-127.8
		c2.5-3.3,1.8-8-1.5-10.5l-65.1-48.3C199.4,214.3,194.7,215,192.2,218.3z"/>
	<path class="st5" d="M199.4,369.1l-1.3,1.7c-0.6,0.8-1.3,1.5-2.2,2c-0.8,0.5-1.8,0.8-2.8,1c-1,0.1-2,0.1-2.9-0.2
		c-1-0.2-1.8-0.7-2.6-1.3L122.5,324c-1.2-0.9-2.1-2.1-2.6-3.6c-0.5-1.4-0.5-3-0.1-4.4l-22.3,30.1c-1.2,1.6-1.7,3.6-1.4,5.6
		c0.3,2,1.3,3.7,2.9,4.9l65.1,48.3c0.8,0.6,1.7,1,2.6,1.2s1.9,0.3,2.9,0.1c1-0.1,1.9-0.5,2.8-1c0.8-0.5,1.6-1.2,2.2-2l25.1-33.9
		C199.6,369.3,199.4,369.2,199.4,369.1z"/>
</g>
</svg>
