<?xml version="1.0" encoding="utf-8"?>
<!-- Generator: Adobe Illustrator 24.1.2, SVG Export Plug-In . SVG Version: 6.00 Build 0)  -->
<!DOCTYPE svg PUBLIC "-//W3C//DTD SVG 1.1//EN" "http://www.w3.org/Graphics/SVG/1.1/DTD/svg11.dtd" [
	<!ENTITY ns_extend "http://ns.adobe.com/Extensibility/1.0/">
	<!ENTITY ns_ai "http://ns.adobe.com/AdobeIllustrator/10.0/">
	<!ENTITY ns_graphs "http://ns.adobe.com/Graphs/1.0/">
	<!ENTITY ns_vars "http://ns.adobe.com/Variables/1.0/">
	<!ENTITY ns_imrep "http://ns.adobe.com/ImageReplacement/1.0/">
	<!ENTITY ns_sfw "http://ns.adobe.com/SaveForWeb/1.0/">
	<!ENTITY ns_custom "http://ns.adobe.com/GenericCustomNamespace/1.0/">
	<!ENTITY ns_adobe_xpath "http://ns.adobe.com/XPath/1.0/">
]>
<svg version="1.1" id="Layer_1" xmlns:x="&ns_extend;" xmlns:i="&ns_ai;" xmlns:graph="&ns_graphs;"
	 xmlns="http://www.w3.org/2000/svg" xmlns:xlink="http://www.w3.org/1999/xlink" x="0px" y="0px" viewBox="0 0 768 768"
	 style="enable-background:new 0 0 768 768;" xml:space="preserve">
<style type="text/css">
	.st0{fill:#95D6A4;}
	.st1{fill:#78C2A4;}
	.st2{fill:#D5985C;}
	.st3{fill:#C38959;}
	.st4{fill:#6B61B1;}
	.st5{fill:#5E54AC;}
	.st6{fill:#E28086;}
	.st7{fill:#DD636E;}
	.st8{fill:#FFDDCE;}
	.st9{fill:#FFCBBE;}
	.st10{fill:#E49542;}
	.st11{fill:#E27D47;}
	.st12{fill:#B1E4F9;}
	.st13{fill:#90D8F9;}
	.st14{fill:#F0F7FF;}
</style>
<metadata>
	<sfw  xmlns="&ns_sfw;">
		<slices></slices>
		<sliceSourceBounds  bottomLeftOrigin="true" height="576.2" width="575.6" x="96.2" y="95.9"></sliceSourceBounds>
	</sfw>
</metadata>
<g>
	<path class="st0" d="M547.5,95.9H154.8c-21.6,0-39.1,17.5-39.1,39.1V206c0,21.6,17.5,39.1,39.1,39.1h37.9l6.5,6.4H245l7.7-6.4
		h294.7c21.6,0,39.1-17.5,39.1-39.1v-70.9C586.6,113.4,569.1,95.9,547.5,95.9L547.5,95.9z"/>
	<path class="st1" d="M186.1,245.1c5.1,0,8.9,4.6,8,9.5l-8.8,49c-0.8,4.3,4.4,7.1,7.6,4.1l63.7-60.5c1.5-1.4,3.5-2.2,5.6-2.2H186.1z
		"/>
	<path class="st1" d="M613.2,95.9h-73.3c21.6,0,39.1,17.5,39.1,39.1V206c0,21.6-17.5,39.1-39.1,39.1h-34c2.1,0,4.1,0.8,5.6,2.2
		l63.7,60.5c3.2,3,8.4,0.2,7.6-4.1l-8.8-49c-0.9-5,2.9-9.6,8-9.6h31.2c21.6,0,39.1-17.5,39.1-39.1v-70.9
		C652.3,113.4,634.8,95.9,613.2,95.9L613.2,95.9z"/>
	<path class="st2" d="M160.9,656.9c-5.2-28.9,16.2-55.8,45.5-57.3c26-1.3,46.3-22.8,46.3-48.8l-0.2-139.3c0-5.9-0.5-12.8-1.5-19.7
		c-1.6-10.3-3.6-16.6-5.2-21.5h-54.9c-39.9,0-72.2,32.3-72.2,72.2v217.9h42.9L160.9,656.9z"/>
	<path class="st3" d="M334.4,507l-14.9-31.4c-0.9-1.9-1.4-3.9-1.4-6l-0.3-22.9c0-28.8-10-55.5-26.7-76.5h-55.6c0.3,2,0.7,4.1,1.4,6
		c4.4,12.6,6.8,26.2,6.8,40.2l0.2,131.7c0,24.6-19.2,44.9-43.7,46.1c-27.7,1.4-47.9,26.9-43,54.2l2.1,11.8h68l-5.2-33
		c-1.8-11.2,6.9-21.3,18.2-21.3l42.6,0c13.3,0,24.2-10.8,24.2-24.1l0-39.9c0-7.9,6.4-14.7,14.3-14.5
		C331.8,527.6,338.9,516.6,334.4,507z"/>
	<path class="st4" d="M174.2,539.5v-17.6c0-9.4,4.4-18.3,11.8-24l30.3-23.5c11.3-8.8,17.9-22.3,17.9-36.6c0-14.8,7-28,17.8-36.4
		c-0.2-3.1-0.6-6.3-1.1-9.6c-2.5-16.4-6.3-22.7-7.1-29.3h0c-0.5-3.6-0.3-7.3,0.4-10.9l-3.6-3h-44c-63.7,0-111.2,58.5-98.2,120.8
		l20.3,97.1h28.6C162.1,566.5,174.2,554.4,174.2,539.5z"/>
	<path class="st5" d="M318.9,348.6h-78.3c-5.5,8.2-7,18.3-3.8,27.7c3.7,10.7,6,22.1,6.6,33.8c8.4-11.3,21.9-18.6,37.1-18.6h5.8
		c20.9,0,37.8-16.9,37.8-37.8C324.1,350.9,321.8,348.6,318.9,348.6z"/>
	<path class="st6" d="M161.8,634.9l-49.4-4.8c-7.8-0.7-14.5,5.4-14.5,13.2v15.6c0,7.3,5.9,13.2,13.2,13.2h63.1l3.7-5.5V656
		C177.9,646,171.1,637.5,161.8,634.9z"/>
	<path class="st7" d="M235.5,641.9l-80.1-7.7c10.7,1.6,18.8,10.8,18.8,21.8v16.1h60.1c7.3,0,13.2-5.9,13.2-13.2v-3.8
		C247.5,648.3,242.3,642.6,235.5,641.9z"/>
	<path class="st8" d="M540.8,660.3H584v-73.9c0-13.3,1.4-26.5,4.1-39.5l8.7-41.7l7.5-35.8c7.9-37.8-6.5-75.8-35.9-99.2H477
		c-16.7,21-26.7,47.7-26.7,76.5l-0.3,22.9c0,2.1-0.5,4.1-1.4,6L433.6,507c-4.5,9.5,2.5,20.5,13.1,20.4c7.9-0.1,14.3,6.6,14.3,14.5
		l0,39.9c0,13.3,10.8,24.2,24.2,24.1l42.6,0c11.3,0,20,10.1,18.2,21.3L540.8,660.3z"/>
	<path class="st9" d="M577.2,370.2h-16.7c28.4,22.6,44.1,60.1,35.9,99.2L580.2,547c-2.7,13-4.1,26.2-4.1,39.5v73.9h73.3V442.4
		C649.4,402.6,617.1,370.2,577.2,370.2z"/>
	<path class="st10" d="M593.7,519.9l3-14.6l7.5-35.9c7.9-37.8-6.5-75.8-35.9-99.2c-17-13.5-38.5-21.7-62.3-21.7h-57
		c-2.8,0-5.1,2.3-5.1,5.1c0,20.9,16.9,37.8,37.8,37.8h5.8c25.5,0,46.2,20.7,46.2,46.2c0,14.3,6.6,27.8,17.9,36.6l30.3,23.5
		C588.9,503.1,593.2,511.2,593.7,519.9z"/>
	<path class="st11" d="M571.4,348.6h-73.3c63.7,0,111.2,58.5,98.2,120.8l-7.5,35.8c3.2,4.9,4.9,10.6,4.9,16.5v17.6
		c0,14.9,12.1,27,27,27h28.6l20.3-97.1C682.7,407.1,635.1,348.6,571.4,348.6z"/>
	<path class="st12" d="M579,637.5l-46.5,4.5c-6.8,0.7-12,6.3-12,13.2v3.8c0,7.3,5.9,13.2,13.2,13.2h63.1l0.9-3v-11.7
		C597.8,646.7,589.4,638.1,579,637.5z"/>
	<path class="st13" d="M655.6,630.1l-79.9,7.7c11.4-0.8,21.1,8.3,21.1,19.7v14.6h60.1c7.3,0,13.2-5.9,13.2-13.2v-15.6
		C670.1,635.5,663.4,629.4,655.6,630.1z"/>
	<path class="st14" d="M585.9,155H182.1c-4.8,0-8.7-3.9-8.7-8.7c0-4.8,3.9-8.7,8.7-8.7h403.8c4.8,0,8.7,3.9,8.7,8.7
		C594.6,151.1,590.7,155,585.9,155z"/>
	<path class="st14" d="M384,198.7H182.1c-4.8,0-8.7-3.9-8.7-8.7c0-4.8,3.9-8.7,8.7-8.7H384c4.8,0,8.7,3.9,8.7,8.7
		C392.7,194.8,388.8,198.7,384,198.7z"/>
</g>
</svg>
