<?xml version="1.0" encoding="utf-8"?>
<!-- Generator: Adobe Illustrator 24.1.2, SVG Export Plug-In . SVG Version: 6.00 Build 0)  -->
<!DOCTYPE svg PUBLIC "-//W3C//DTD SVG 1.1//EN" "http://www.w3.org/Graphics/SVG/1.1/DTD/svg11.dtd" [
	<!ENTITY ns_extend "http://ns.adobe.com/Extensibility/1.0/">
	<!ENTITY ns_ai "http://ns.adobe.com/AdobeIllustrator/10.0/">
	<!ENTITY ns_graphs "http://ns.adobe.com/Graphs/1.0/">
	<!ENTITY ns_vars "http://ns.adobe.com/Variables/1.0/">
	<!ENTITY ns_imrep "http://ns.adobe.com/ImageReplacement/1.0/">
	<!ENTITY ns_sfw "http://ns.adobe.com/SaveForWeb/1.0/">
	<!ENTITY ns_custom "http://ns.adobe.com/GenericCustomNamespace/1.0/">
	<!ENTITY ns_adobe_xpath "http://ns.adobe.com/XPath/1.0/">
]>
<svg version="1.1" id="Layer_1" xmlns:x="&ns_extend;" xmlns:i="&ns_ai;" xmlns:graph="&ns_graphs;"
	 xmlns="http://www.w3.org/2000/svg" xmlns:xlink="http://www.w3.org/1999/xlink" x="0px" y="0px" viewBox="0 0 768 768"
	 style="enable-background:new 0 0 768 768;" xml:space="preserve">
<style type="text/css">
	.st0{fill:#DAE6F1;}
	.st1{fill:#3A70BF;}
	.st2{fill:#5290DB;}
	.st3{fill:#FC657E;}
	.st4{fill:#222222;}
	.st5{fill:#AD7753;}
	.st6{fill:#8E6244;}
	.st7{fill:#EDF4FC;}
	.st8{fill:#F9D0B4;}
	.st9{fill:#754E34;}
	.st10{fill:#F5C84C;}
	.st11{fill:#70D6F9;}
	.st12{fill:#87D147;}
</style>
<metadata>
	<sfw  xmlns="&ns_sfw;">
		<slices></slices>
		<sliceSourceBounds  bottomLeftOrigin="true" height="576.2" width="528.9" x="119.5" y="95.9"></sliceSourceBounds>
	</sfw>
</metadata>
<g>
	<path class="st0" d="M378.3,477.6c0-3.6,2.9-6.5,6.5-6.5h13.7c-5.1,0-9.2-4.1-9.2-9.2v-81.4h-12.2c0.1,1.5-0.3,3-1.4,4.1
		l-11.9,11.9c-2,2-5.2,2-7.1,0l-22.4-22.4l24.5,123.3h39.3C387.2,497.4,378.3,488.5,378.3,477.6z"/>
	<path class="st1" d="M318.2,440.6c-0.4-0.9-0.3-2,0.3-2.8l6.5-9.7c0.9-1.4,0.6-3.2-0.8-4.2l-12-8.6c-0.8-0.6-1.3-1.6-1.3-2.6
		l1.4-40.3c-1,0.3-2.1,0.6-3.1,0.8l-38,9.6c-11.1,2.8-19.1,12.5-19.7,23.9l-5.3,90.6h94.2L318.2,440.6z"/>
	<path class="st2" d="M334.3,374.1l-4.2-4.2c-0.9-0.9-1.3-2-1.4-3.1c-5.3,2.3-10.7,4.1-16.2,5.7l-1.4,40.3c0,1,0.4,2,1.3,2.6l12,8.6
		c1.3,1,1.7,2.8,0.8,4.2l-6.5,9.7c-0.6,0.8-0.7,1.9-0.3,2.8l22.3,56.8h18.3L334.3,374.1z"/>
	<path class="st3" d="M377.2,380.6c0.1,1.5-0.3,3-1.4,4.1l-10,10l0.3,0.6l9,13.5h14.3v-28.2H377.2z"/>
	<path class="st3" d="M378.3,477.6c0-3.6,2.9-6.5,6.5-6.5h13.7c-5.1,0-9.2-4.1-9.2-9.2v-53.2H375l-16.2,88.7h39.3
		C387.2,497.4,378.3,488.5,378.3,477.6z"/>
	<path class="st4" d="M387.8,403.1H378l-7.3-11c-1.7-2.6-5.2-3.3-7.8-1.6c-2.6,1.7-3.3,5.2-1.6,7.8l9,13.5c1,1.6,2.8,2.5,4.7,2.5
		h12.8c3.1,0,5.6-2.5,5.6-5.6C393.4,405.6,390.9,403.1,387.8,403.1z"/>
	<path class="st4" d="M375.9,403.6c-3-0.6-6,1.5-6.5,4.5l-15.8,86.7c-0.6,3.1,1.5,6,4.5,6.5c0.3,0.1,0.7,0.1,1,0.1
		c2.7,0,5-1.9,5.5-4.6l15.8-86.7C381,407.1,379,404.1,375.9,403.6z"/>
	<path class="st5" d="M627.5,497.4h-487c-8.5,0-15.3,6.9-15.3,15.3c0,8.5,6.9,15.3,15.3,15.3h487c8.5,0,15.3-6.9,15.3-15.3
		C642.8,504.3,636,497.4,627.5,497.4z"/>
	<path class="st6" d="M142.1,528c0.6,13.1,11.5,23.6,24.8,23.6h434.2c13.3,0,24.1-10.5,24.8-23.6H142.1z"/>
	<path class="st6" d="M601.1,551.7H166.9c-1,0-1.9-0.1-2.9-0.2v107c0,4.4,3.6,8,8,8h424c4.4,0,8-3.6,8-8v-107
		C603.1,551.6,602.1,551.7,601.1,551.7z"/>
	<path class="st7" d="M375.7,377.5l-26.6-26.6c-2-2-5.2-2-7.1,0L330,362.8c-2,2-2,5.2,0,7.1l26.6,26.6c2,2,5.2,2,7.1,0l11.9-11.9
		C377.7,382.7,377.7,379.5,375.7,377.5z"/>
	<path class="st8" d="M384,337.2c-11,0-21.3-2.7-30.5-7.5v10.8c0,4.2-1.1,8.2-3.2,11.6l25.4,25.4c0.9,0.9,1.3,1.9,1.4,3.1h12.2V337
		C387.6,337.1,385.8,337.2,384,337.2z"/>
	<path class="st8" d="M450.2,211.1c0-1.9-1.5-3.4-3.4-3.5c-27.5-0.8-42-11.7-47.5-17.2c-1.5-1.5-4-1.3-5.3,0.3
		c-24.2,30.4-59.8,26.1-71.8,23.6c-2.2-0.5-4.3,1.2-4.3,3.4v53.3c0,36.4,29.8,66.2,66.2,66.2c1.8,0,3.6-0.1,5.3-0.2v-1.8
		c0-5.1,4.1-9.2,9.2-9.2h22.3c17.7-11.9,29.4-32.1,29.4-54.9v-58.9C450.2,211.8,450.2,211.4,450.2,211.1z"/>
	<path class="st9" d="M435.8,140.9c-7.1,0-13.6,2-19.3,5.4c-6.6-11-18.7-18.5-32.4-18.5h-19.4c-37.6,0-68.3,30.7-68.3,68.3v30.6
		c4.7-3.8,10.7-6.1,17.2-6.1c1.4,0,2.9,0.1,4.2,0.3v-3.2c0-2.2,2.1-3.9,4.3-3.4c12,2.5,47.6,6.8,71.8-23.6c1.3-1.7,3.8-1.8,5.3-0.3
		c5.6,5.5,20,16.4,47.5,17.2c1.9,0.1,3.4,1.6,3.4,3.5c0,0.3,0,0.7,0,1v8.9c1.4-0.2,2.8-0.3,4.2-0.3c7.4,0,14.2,3,19.2,7.8v-49.7
		C473.6,157.9,456.6,140.9,435.8,140.9z"/>
	<path class="st8" d="M454.4,220.6c-1.4,0-2.9,0.1-4.2,0.3v50.1c0,1.5-0.1,3-0.2,4.4c1.4,0.2,2.9,0.4,4.4,0.4
		c15.3,0,27.6-12.4,27.6-27.6C482,233,469.7,220.6,454.4,220.6z"/>
	<path class="st8" d="M317.8,271.1V221c-1.4-0.2-2.8-0.3-4.2-0.3c-15.3,0-27.6,12.4-27.6,27.6c0,15.3,12.4,27.6,27.6,27.6
		c1.5,0,3-0.2,4.4-0.4C317.9,274,317.8,272.6,317.8,271.1z"/>
	<path class="st4" d="M407.4,282.5c-2.4-2-5.9-1.7-7.9,0.7c-3,3.5-8.1,5.7-13.6,5.7s-10.6-2.1-13.6-5.7c-2-2.4-5.5-2.7-7.9-0.7
		c-2.4,2-2.7,5.5-0.7,7.9c5.1,6.1,13.4,9.7,22.2,9.7c8.8,0,17.2-3.6,22.2-9.7C410.1,288,409.8,284.5,407.4,282.5z"/>
	<path class="st4" d="M413.3,243.3c-4.7,0-8.4,3.8-8.4,8.4c0,4.7,3.8,8.4,8.4,8.4c4.7,0,8.4-3.8,8.4-8.4
		C421.8,247.1,418,243.3,413.3,243.3z"/>
	<path class="st4" d="M356.6,243.3c-4.7,0-8.4,3.8-8.4,8.4c0,4.7,3.8,8.4,8.4,8.4c4.7,0,8.4-3.8,8.4-8.4
		C365.1,247.1,361.3,243.3,356.6,243.3z"/>
	<path class="st4" d="M292.8,423.1c-3.1,0-5.6,2.5-5.6,5.6v64.4c0,3.1,2.5,5.6,5.6,5.6c3.1,0,5.6-2.5,5.6-5.6v-64.4
		C298.5,425.6,295.9,423.1,292.8,423.1z"/>
	<path class="st4" d="M379.7,373.5l-26.6-26.6c-2-2-4.7-3.1-7.5-3.1s-5.5,1.1-7.5,3.1l-11.9,11.9c-4.2,4.2-4.2,10.9,0,15.1
		l26.6,26.6c2,2,4.7,3.1,7.5,3.1c2.9,0,5.5-1.1,7.5-3.1l11.9-11.9c2-2,3.1-4.7,3.1-7.5C382.8,378.2,381.7,375.5,379.7,373.5z
		 M360.2,392.2l-25.8-25.8l11.1-11.1l25.8,25.8L360.2,392.2z"/>
	<path class="st4" d="M387,374.9h-9c-3.1,0-5.6,2.5-5.6,5.6s2.5,5.6,5.6,5.6h9c3.1,0,5.6-2.5,5.6-5.6S390.2,374.9,387,374.9z"/>
	<path class="st4" d="M353.5,325.8c-3.1,0-5.6,2.5-5.6,5.6v9.1c0,2.8-0.7,5.5-1.9,7.9c-1.4,2.8-0.4,6.2,2.4,7.6
		c0.8,0.4,1.7,0.6,2.6,0.6c2,0,4-1.1,5-3c2.1-4,3.2-8.6,3.2-13.1v-9.1C359.1,328.3,356.6,325.8,353.5,325.8z"/>
	<path class="st4" d="M332.9,365c-1.2-2.9-4.5-4.2-7.4-3c-5.7,2.4-11.7,4.4-17.6,5.9l-38,9.6c-13.5,3.4-23.2,15.1-23.9,29l-5.2,89.1
		c-0.2,3.1,2.2,5.8,5.3,5.9c0.1,0,0.2,0,0.3,0c3,0,5.4-2.3,5.6-5.3l5.2-89.1c0.5-9,6.7-16.5,15.5-18.7l38-9.6
		c6.5-1.6,13-3.8,19.2-6.4C332.7,371.2,334.1,367.9,332.9,365z"/>
	<path class="st4" d="M455.8,211c-0.1-4.9-4-8.8-8.9-9c-26-0.8-39.3-11.1-43.8-15.6c-1.9-1.8-4.4-2.8-7-2.6c-2.6,0.2-5,1.4-6.6,3.5
		c-21.8,27.4-53.6,24.2-66.3,21.6c-2.7-0.6-5.5,0.1-7.7,1.9c-2.1,1.7-3.4,4.3-3.4,7.1v53.2c0,39.6,32.2,71.8,71.8,71.8
		c1.2,0,2.3,0,3.5-0.1c3.1-0.1,5.5-2.8,5.4-5.9c-0.1-3.1-2.8-5.5-5.9-5.4c-1,0-2,0.1-3,0.1c-33.4,0-60.5-27.2-60.5-60.5v-50.7
		c13.6,2.4,48.7,5,73.5-24.4c7.3,6.5,22.2,15.9,47.6,17.1v57.9c0,19.7-9.7,38.2-25.9,49.6c-2.5,1.8-3.2,5.3-1.4,7.8
		c1.8,2.5,5.3,3.2,7.8,1.4c19.2-13.5,30.7-35.5,30.7-58.8v-58.9L455.8,211z"/>
	<path class="st4" d="M435.8,135.3c-6,0-12,1.3-17.5,3.7c-8.2-10.5-20.9-16.8-34.2-16.8h-19.4c-40.8,0-73.9,33.2-73.9,73.9v29.2
		c0,3.1,2.5,5.6,5.6,5.6c3.1,0,5.6-2.5,5.6-5.6v-29.2c0-34.6,28.1-62.7,62.7-62.7h19.4c11.2,0,21.8,6,27.6,15.8
		c0.8,1.3,2,2.2,3.5,2.6c1.4,0.4,3,0.1,4.3-0.6c5-3,10.7-4.6,16.4-4.6c17.7,0,32.2,14.4,32.2,32.2v48.4c0,3.1,2.5,5.6,5.6,5.6
		c3.1,0,5.6-2.5,5.6-5.6v-48.4C479.2,154.7,459.7,135.3,435.8,135.3z"/>
	<path class="st4" d="M454.4,215c-0.9,0-1.8,0-2.7,0.1c-3.1,0.3-5.4,3-5.1,6.1c0.3,3.1,3,5.4,6.1,5.1c0.6,0,1.2-0.1,1.8-0.1
		c12.1,0,22,9.9,22,22c0,12.1-9.9,22-22,22c-0.7,0-1.3,0-2-0.1c-3.1-0.3-5.9,1.9-6.2,5c-0.3,3.1,1.9,5.9,5,6.2
		c1.1,0.1,2.1,0.2,3.1,0.2c18.3,0,33.3-14.9,33.3-33.3S472.8,215,454.4,215z"/>
	<path class="st4" d="M315.2,270.2c-0.5,0-1.1,0.1-1.7,0.1c-12.1,0-22-9.9-22-22c0-12.1,9.9-22,22-22c0.6,0,1.2,0,1.7,0.1
		c3.1,0.2,5.8-2.1,6.1-5.2c0.2-3.1-2.1-5.8-5.2-6.1c-0.9-0.1-1.7-0.1-2.6-0.1c-18.3,0-33.3,14.9-33.3,33.3s14.9,33.3,33.3,33.3
		c0.9,0,1.8,0,2.7-0.1c3.1-0.3,5.4-3,5.1-6.1C321.1,272.2,318.4,269.9,315.2,270.2z"/>
	<path class="st7" d="M564.9,326H398.5c-5.1,0-9.2,4.1-9.2,9.2V462c0,5.1,4.1,9.2,9.2,9.2h166.4c5.1,0,9.2-4.1,9.2-9.2V335.2
		C574.1,330.1,570,326,564.9,326z"/>
	<path class="st0" d="M578.6,471.1H384.8c-3.6,0-6.5,2.9-6.5,6.5c0,10.9,8.9,19.8,19.8,19.8h167.1c10.9,0,19.8-8.9,19.8-19.8
		C585.1,474,582.2,471.1,578.6,471.1z"/>
	<path class="st4" d="M497.1,393h-30.8c-3.1,0-5.6,2.5-5.6,5.6c0,3.1,2.5,5.6,5.6,5.6h30.8c3.1,0,5.6-2.5,5.6-5.6
		C502.7,395.5,500.2,393,497.1,393z"/>
	<path class="st4" d="M564.9,320.4H398.5c-8.1,0-14.8,6.6-14.8,14.8V462c0,8.1,6.6,14.8,14.8,14.8h166.4c8.1,0,14.8-6.6,14.8-14.8
		V335.2C579.7,327,573.1,320.4,564.9,320.4z M568.4,462c0,1.9-1.6,3.5-3.5,3.5H398.5c-1.9,0-3.5-1.6-3.5-3.5V335.2
		c0-1.9,1.6-3.5,3.5-3.5h166.4c1.9,0,3.5,1.6,3.5,3.5V462z"/>
	<path class="st4" d="M578.6,465.5H384.8c-6.7,0-12.1,5.4-12.1,12.1c0,14,11.4,25.4,25.4,25.4h167.1c14,0,25.4-11.4,25.4-25.4
		C590.7,470.9,585.3,465.5,578.6,465.5z M565.2,491.8H398.1c-7.8,0-14.2-6.4-14.2-14.2c0-0.5,0.4-0.8,0.8-0.8h193.8
		c0.5,0,0.8,0.4,0.8,0.8C579.4,485.4,573.1,491.8,565.2,491.8z"/>
	<path class="st10" d="M231.2,382.6c-10.1-1.8-18-9.7-20-19.6c0-0.4-0.9-0.4-0.9,0c-2,9.9-9.9,17.8-20,19.6c-0.5,0-0.5,0.7,0,0.9
		c10.1,1.8,18,9.7,20,19.6c0,0.5,0.9,0.5,0.9,0c2-9.9,9.9-17.8,20-19.6C231.6,383.3,231.6,382.6,231.2,382.6z"/>
	<path class="st11" d="M538.5,276.4c-7.1-1.3-12.6-6.8-14.1-13.7c0-0.3-0.6-0.3-0.6,0c-1.4,6.9-6.9,12.5-14.1,13.7
		c-0.3,0-0.3,0.5,0,0.6c7.1,1.3,12.6,6.8,14.1,13.7c0,0.3,0.6,0.3,0.6,0c1.4-6.9,6.9-12.5,14.1-13.7
		C538.9,276.9,538.9,276.4,538.5,276.4z"/>
	<path class="st12" d="M529.7,133.4h-5.2v-5.2c0-3.8-3.2-7.2-7.2-7.2s-7.2,3.2-7.2,7.2v5.2H505c-3.8,0-7.2,3.2-7.2,7.2
		c0,4.1,3.2,7.2,7.2,7.2h5.2v5.2c0,3.8,3.2,7.2,7.2,7.2s7.2-3.2,7.2-7.2v-5.2h5.2c3.8,0,7.2-3.2,7.2-7.2
		C536.9,136.5,533.8,133.4,529.7,133.4z"/>
	<path class="st3" d="M190.2,435.8c-4.2,0-7.7,3.4-7.7,7.7s3.4,7.7,7.7,7.7c4.2,0,7.7-3.4,7.7-7.7S194.5,435.8,190.2,435.8z"/>
	<path class="st10" d="M466.9,95.9c-4.2,0-7.7,3.4-7.7,7.7c0,4.2,3.4,7.7,7.7,7.7c4.2,0,7.7-3.4,7.7-7.7
		C474.6,99.3,471.2,95.9,466.9,95.9z"/>
	<path class="st4" d="M627.5,491.8h-487c-11.5,0-20.9,9.4-20.9,20.9s9.4,20.9,20.9,20.9h487c11.5,0,20.9-9.4,20.9-20.9
		S639.1,491.8,627.5,491.8z M627.5,522.4h-487c-5.3,0-9.7-4.3-9.7-9.7c0-5.3,4.3-9.7,9.7-9.7h487c5.3,0,9.7,4.3,9.7,9.7
		C637.2,518.1,632.9,522.4,627.5,522.4z"/>
	<path class="st4" d="M626.4,524c-3.1-0.4-5.9,1.9-6.2,5c-1.1,9.7-9.3,17.1-19.1,17.1H166.9c-9.7,0-18.1-7.6-19.1-17.3
		c-0.3-3.1-3.1-5.3-6.1-5.1c-3.1,0.3-5.4,3.1-5.1,6.1c1.5,15.7,14.6,27.5,30.3,27.5h434.2c15.5,0,28.5-11.6,30.2-27
		C631.7,527.2,629.5,524.4,626.4,524z"/>
	<path class="st4" d="M604,547.2c-3.1,0-5.6,2.5-5.6,5.6v105.6c0,1.3-1.1,2.4-2.4,2.4H172c-1.3,0-2.4-1.1-2.4-2.4V553.5
		c0-3.1-2.5-5.6-5.6-5.6c-3.1,0-5.6,2.5-5.6,5.6v104.9c0,7.5,6.1,13.6,13.6,13.6h424c7.5,0,13.6-6.1,13.6-13.6V552.8
		C609.6,549.7,607.1,547.2,604,547.2z"/>
	<path class="st4" d="M364,494.7l-24.1-121.2c-0.6-3-3.6-5-6.6-4.4c-3,0.6-5,3.6-4.4,6.6L353,496.9c0.5,2.7,2.9,4.5,5.5,4.5
		c0.4,0,0.7,0,1.1-0.1C362.6,500.7,364.6,497.8,364,494.7z"/>
	<path class="st4" d="M345.1,493.8l-21.2-53.9l5.7-8.6c2.6-3.9,1.7-9.2-2.2-11.9l-10.9-7.8l1.3-37.7c0.1-3.1-2.3-5.7-5.4-5.8
		c-3-0.1-5.7,2.3-5.8,5.4l-1.4,39c-0.1,2.9,1.3,5.7,3.6,7.4l10,7.1l-5.1,7.6c-1.6,2.4-1.9,5.3-0.9,8l21.7,55.2
		c0.9,2.2,3,3.6,5.2,3.6c0.7,0,1.4-0.1,2.1-0.4C344.8,499.9,346.2,496.6,345.1,493.8z"/>
</g>
</svg>
